<svg id="visual" viewBox="0 0 900 200" width="900" height="200" xmlns="http://www.w3.org/2000/svg" xmlns:xlink="http://www.w3.org/1999/xlink" version="1.1"><g stroke-width="19" stroke-linejoin="bevel"><path d="M449 138.3L518 200L504 113.3Z" fill="#826ed0" stroke="#1b1f24"></path><path d="M449 138.3L462 200L518 200Z" fill="#2a3b52" stroke="#1b1f24"></path><path d="M518 200L520 103.7L504 113.3Z" fill="#273240" stroke="#1b1f24"></path><path d="M504 113.3L427 29.7L449 138.3Z" fill="#24292f" stroke="#1b1f24"></path><path d="M518 200L613 200L520 103.7Z" fill="#2a3b52" stroke="#1b1f24"></path><path d="M376 55.7L352 166.3L449 138.3Z" fill="#9972df" stroke="#1b1f24"></path><path d="M449 138.3L352 166.3L462 200Z" fill="#273240" stroke="#1b1f24"></path><path d="M520 103.7L427 29.7L504 113.3Z" fill="#9972df" stroke="#1b1f24"></path><path d="M427 29.7L376 55.7L449 138.3Z" fill="#2f4465" stroke="#1b1f24"></path><path d="M280 200L340 200L352 166.3Z" fill="#354c77" stroke="#1b1f24"></path><path d="M352 166.3L340 200L462 200Z" fill="#354c77" stroke="#1b1f24"></path><path d="M520 103.7L508 0L427 29.7Z" fill="#9972df" stroke="#1b1f24"></path><path d="M611 28.7L508 0L520 103.7Z" fill="#5b62ae" stroke="#1b1f24"></path><path d="M613 200L664 148.3L520 103.7Z" fill="#826ed0" stroke="#1b1f24"></path><path d="M508 0L416 0L427 29.7Z" fill="#3f548a" stroke="#1b1f24"></path><path d="M427 29.7L416 0L376 55.7Z" fill="#2f4465" stroke="#1b1f24"></path><path d="M664 148.3L611 28.7L520 103.7Z" fill="#3f548a" stroke="#1b1f24"></path><path d="M298 64.7L298 107.3L376 55.7Z" fill="#2f4465" stroke="#1b1f24"></path><path d="M376 55.7L298 107.3L352 166.3Z" fill="#6e68c0" stroke="#1b1f24"></path><path d="M713 108.7L634 0L611 28.7Z" fill="#2f4465" stroke="#1b1f24"></path><path d="M611 28.7L634 0L508 0Z" fill="#2f4465" stroke="#1b1f24"></path><path d="M298 107.3L280 200L352 166.3Z" fill="#24292f" stroke="#1b1f24"></path><path d="M339 0L298 64.7L376 55.7Z" fill="#826ed0" stroke="#1b1f24"></path><path d="M298 107.3L206 94.3L280 200Z" fill="#3f548a" stroke="#1b1f24"></path><path d="M416 0L339 0L376 55.7Z" fill="#9972df" stroke="#1b1f24"></path><path d="M744 138.3L713 108.7L664 148.3Z" fill="#826ed0" stroke="#1b1f24"></path><path d="M664 148.3L713 108.7L611 28.7Z" fill="#2f4465" stroke="#1b1f24"></path><path d="M339 0L312 0L298 64.7Z" fill="#2a3b52" stroke="#1b1f24"></path><path d="M750 200L744 138.3L664 148.3Z" fill="#24292f" stroke="#1b1f24"></path><path d="M713 108.7L757 0L634 0Z" fill="#273240" stroke="#1b1f24"></path><path d="M613 200L750 200L664 148.3Z" fill="#2a3b52" stroke="#1b1f24"></path><path d="M831 200L769 105.7L744 138.3Z" fill="#5b62ae" stroke="#1b1f24"></path><path d="M744 138.3L769 105.7L713 108.7Z" fill="#273240" stroke="#1b1f24"></path><path d="M170 65.7L206 94.3L171 0Z" fill="#6e68c0" stroke="#1b1f24"></path><path d="M298 64.7L206 94.3L298 107.3Z" fill="#9972df" stroke="#1b1f24"></path><path d="M769 105.7L757 0L713 108.7Z" fill="#4c5b9c" stroke="#1b1f24"></path><path d="M206 94.3L184 200L280 200Z" fill="#273240" stroke="#1b1f24"></path><path d="M831 200L810 91.3L769 105.7Z" fill="#3f548a" stroke="#1b1f24"></path><path d="M769 105.7L810 91.3L757 0Z" fill="#2a3b52" stroke="#1b1f24"></path><path d="M171 0L206 94.3L298 64.7Z" fill="#3f548a" stroke="#1b1f24"></path><path d="M206 94.3L121 157.3L184 200Z" fill="#4c5b9c" stroke="#1b1f24"></path><path d="M750 200L831 200L744 138.3Z" fill="#24292f" stroke="#1b1f24"></path><path d="M810 91.3L799 0L757 0Z" fill="#24292f" stroke="#1b1f24"></path><path d="M900 37.7L799 0L810 91.3Z" fill="#5b62ae" stroke="#1b1f24"></path><path d="M312 0L171 0L298 64.7Z" fill="#6e68c0" stroke="#1b1f24"></path><path d="M94 66.7L121 157.3L170 65.7Z" fill="#4c5b9c" stroke="#1b1f24"></path><path d="M170 65.7L121 157.3L206 94.3Z" fill="#2a3b52" stroke="#1b1f24"></path><path d="M121 157.3L120 200L184 200Z" fill="#826ed0" stroke="#1b1f24"></path><path d="M171 0L94 66.7L170 65.7Z" fill="#826ed0" stroke="#1b1f24"></path><path d="M121 157.3L0 200L120 200Z" fill="#6e68c0" stroke="#1b1f24"></path><path d="M831 200L900 114.3L810 91.3Z" fill="#4c5b9c" stroke="#1b1f24"></path><path d="M900 200L900 114.3L831 200Z" fill="#24292f" stroke="#1b1f24"></path><path d="M900 114.3L900 37.7L810 91.3Z" fill="#9972df" stroke="#1b1f24"></path><path d="M900 37.7L900 0L799 0Z" fill="#6e68c0" stroke="#1b1f24"></path><path d="M171 0L50 0L94 66.7Z" fill="#3f548a" stroke="#1b1f24"></path><path d="M94 66.7L0 126.3L121 157.3Z" fill="#273240" stroke="#1b1f24"></path><path d="M0 72.7L0 126.3L94 66.7Z" fill="#2a3b52" stroke="#1b1f24"></path><path d="M0 126.3L0 200L121 157.3Z" fill="#273240" stroke="#1b1f24"></path><path d="M50 0L0 72.7L94 66.7Z" fill="#354c77" stroke="#1b1f24"></path><path d="M50 0L0 0L0 72.7Z" fill="#2f4465" stroke="#1b1f24"></path></g></svg>